<svg xmlns="http://www.w3.org/2000/svg" width="27" height="24" viewBox="0 0 27 24">
    <path fill-rule="nonzero" d="M27 22.278c0 .94-.809 1.722-1.78 1.722H1.814c-.647 0-1.187-.313-1.564-.835a1.68 1.68 0 0 1-.054-1.67L11.953.888A1.871 1.871 0 0 1 13.517 0c.647 0 1.24.365 1.564.887l11.595 20.4c.216.313.324.626.324.991zM13.571 15.6c.593-.052 1.025-.47 1.133-1.043.431-2.244.7-4.644.916-6.679 0-.521-.323-.939-.862-1.095a6.053 6.053 0 0 0-2.373 0c-.486.104-.863.574-.863 1.095.215 2.035.431 4.435.916 6.679.108.521.54.939 1.08 1.043h.053zm1.995 4.122a1.97 1.97 0 0 0-1.995-1.983c-1.133 0-2.05.835-2.05 1.93a1.97 1.97 0 0 0 1.996 1.983h.054c1.025.052 1.942-.835 1.995-1.93-.053.052-.053.052 0 0z"/>
</svg>
