<svg width="17px" height="17px" viewBox="0 0 17 17" version="1.1" xmlns="http://www.w3.org/2000/svg" xmlns:xlink="http://www.w3.org/1999/xlink">
    <path d="M8.5,-0.0001 C3.787,-0.0001 0,3.7859 0,8.4999 C0,13.2129 3.787,16.9999 8.5,16.9999 C13.214,16.9999 17,13.2129 17,8.4999 C17,3.7859 13.214,-0.0001 8.5,-0.0001 Z M10.7066896,6.67939465 L6.00288243,11.7625689 C5.93274433,11.8358382 5.86260623,11.871997 5.75694364,11.871997 C5.65128104,11.871997 5.54561845,11.8358382 5.51009396,11.7625689 L3.05070602,8.99451314 L2.98056792,8.92124387 C2.91042982,8.84702306 2.87490532,8.73664339 2.87490532,8.66337412 C2.87490532,8.59010485 2.91042982,8.47972518 2.98056792,8.40645592 L3.47335639,7.89166796 C3.61363259,7.74417788 3.82495778,7.74417788 3.96614486,7.89166796 L4.00166935,7.92782682 L5.65128104,9.77668634 C5.72141915,9.84995561 5.82708174,9.84995561 5.89721984,9.77668634 L9.68649904,5.68692914 L9.72111265,5.68692914 C9.86229973,5.53943906 10.0736249,5.53943906 10.2139011,5.68692914 L10.7066896,6.2017171 C10.8478767,6.31209677 10.8478767,6.53190457 10.7066896,6.67939465 Z M14.149104,6.67939465 L9.44529684,11.7625689 C9.37515874,11.8358382 9.30502064,11.871997 9.19935805,11.871997 C9.09369546,11.871997 8.98803286,11.8358382 8.95250837,11.7625689 L7.83758584,10.6226133 L8.85595462,9.53499292 L9.09369546,9.77668634 C9.16383356,9.84995561 9.26949615,9.84995561 9.33963425,9.77668634 L13.1289135,5.68692914 L13.1635271,5.68692914 C13.3047141,5.53943906 13.5160393,5.53943906 13.6563155,5.68692914 L14.149104,6.2017171 C14.2893802,6.31209677 14.2893802,6.53190457 14.149104,6.67939465 Z" id="obrabotan" fill="#65D086"></path>
</svg>