<?xml version="1.0" encoding="UTF-8" standalone="no"?>
<svg width="17px" height="17px" viewBox="0 0 17 17" version="1.1" xmlns="http://www.w3.org/2000/svg" xmlns:xlink="http://www.w3.org/1999/xlink">
    <!-- Generator: Sketch 40.2 (33826) - http://www.bohemiancoding.com/sketch -->

    <desc>Created with Sketch.</desc>
    <defs></defs>
    <g id="Page-1" stroke="none" stroke-width="1" fill="none" fill-rule="evenodd">
        <path d="M12.2091,11.2818 C12.1321,11.3588 12.1701,11.4748 12.2481,11.5528 C12.2861,11.5908 12.3251,11.5908 12.3631,11.5908 L12.7501,11.5908 C12.9821,11.5908 13.1361,11.7458 13.1361,11.9768 L13.1361,12.7498 C13.1361,12.9818 12.9821,13.1368 12.7501,13.1368 L9.6591,13.1368 C9.4271,13.1368 9.2731,12.9818 9.2731,12.7498 L9.2731,9.6588 C9.2731,9.4278 9.4271,9.2728 9.6591,9.2728 L10.4321,9.2728 C10.6631,9.2728 10.8181,9.4278 10.8181,9.6588 L10.8181,9.9298 C10.8181,10.0458 10.8951,10.1228 11.0111,10.1228 C11.0891,10.1228 11.1271,10.0838 11.1661,10.0458 C11.4361,9.5818 11.5911,9.0408 11.5911,8.4998 C11.5911,7.1478 10.7411,5.9888 9.5041,5.6018 C9.3501,5.5638 9.2731,5.4088 9.2731,5.2548 L9.2731,4.4428 C9.2731,4.1728 9.5041,3.9798 9.7751,4.0568 C11.7071,4.5978 13.1361,6.4138 13.1361,8.4998 C13.1361,9.5428 12.7891,10.5088 12.2091,11.2818 L12.2091,11.2818 Z M7.7271,7.3408 C7.7271,7.5728 7.5731,7.7268 7.3411,7.7268 L6.5681,7.7268 C6.3361,7.7268 6.1821,7.5728 6.1821,7.3408 L6.1821,7.0708 C6.1821,6.9548 6.1041,6.8778 5.9891,6.8778 C5.9111,6.8778 5.8731,6.9158 5.8341,6.9548 C5.5631,7.4178 5.4091,7.9588 5.4091,8.4998 C5.4091,9.8518 6.2591,11.0118 7.4951,11.3978 C7.6501,11.4368 7.7271,11.5908 7.7271,11.7458 L7.7271,12.5568 C7.7271,12.8278 7.4951,13.0208 7.2251,12.9428 C5.2931,12.4018 3.8641,10.5868 3.8641,8.4998 C3.8641,7.4568 4.2111,6.4908 4.7911,5.7178 C4.8681,5.6408 4.8291,5.5248 4.7521,5.4478 C4.7141,5.4088 4.6751,5.4088 4.6361,5.4088 L4.2501,5.4088 C4.0181,5.4088 3.8641,5.2548 3.8641,5.0228 L3.8641,4.2498 C3.8641,4.0178 4.0181,3.8638 4.2501,3.8638 L7.3411,3.8638 C7.5731,3.8638 7.7271,4.0178 7.7271,4.2498 L7.7271,7.3408 Z M8.5001,-0.0002 C3.7861,-0.0002 0.0001,3.7868 0.0001,8.4998 C0.0001,13.2138 3.7861,16.9998 8.5001,16.9998 C13.2141,16.9998 17.0001,13.2138 17.0001,8.4998 C17.0001,3.7868 13.2141,-0.0002 8.5001,-0.0002 L8.5001,-0.0002 Z" id="v_obrabotke" fill="#E9BD00"></path>
    </g>
</svg>